<svg width="25" height="25" viewBox="0 0 25 25" fill="none" xmlns="http://www.w3.org/2000/svg">
<path d="M8.49846 3.18369C5.41126 3.18369 2.90002 5.69725 2.90002 8.78525V16.7852C2.90002 19.8724 5.41359 22.3837 8.50159 22.3837H16.5016C19.5888 22.3837 22.1 19.8701 22.1 16.7821V8.78212C22.1 5.69492 19.5865 3.18369 16.4985 3.18369H8.49846ZM18.1 6.38369C18.5416 6.38369 18.9 6.74209 18.9 7.18369C18.9 7.62529 18.5416 7.98369 18.1 7.98369C17.6584 7.98369 17.3 7.62529 17.3 7.18369C17.3 6.74209 17.6584 6.38369 18.1 6.38369ZM12.5 7.98369C15.1472 7.98369 17.3 10.1365 17.3 12.7837C17.3 15.4309 15.1472 17.5837 12.5 17.5837C9.85282 17.5837 7.70002 15.4309 7.70002 12.7837C7.70002 10.1365 9.85282 7.98369 12.5 7.98369ZM12.5 9.58369C11.6513 9.58369 10.8374 9.92083 10.2373 10.5209C9.63717 11.1211 9.30002 11.935 9.30002 12.7837C9.30002 13.6324 9.63717 14.4463 10.2373 15.0464C10.8374 15.6465 11.6513 15.9837 12.5 15.9837C13.3487 15.9837 14.1626 15.6465 14.7628 15.0464C15.3629 14.4463 15.7 13.6324 15.7 12.7837C15.7 11.935 15.3629 11.1211 14.7628 10.5209C14.1626 9.92083 13.3487 9.58369 12.5 9.58369V9.58369Z" fill="#333333"/>
</svg>
