<svg xmlns="http://www.w3.org/2000/svg" xmlns:xlink="http://www.w3.org/1999/xlink" width="500" zoomAndPan="magnify" viewBox="0 0 375 374.999991" height="500" preserveAspectRatio="xMidYMid meet" version="1.0"><defs><g/></defs><g fill="#2c2c1c" fill-opacity="1"><g transform="translate(76.589417, 215.917296)"><g><path d="M 2.890625 -22.046875 L 12.46875 -22.046875 C 14.757812 -22.046875 16.566406 -21.554688 17.890625 -20.578125 C 19.210938 -19.609375 19.875 -18.257812 19.875 -16.53125 C 19.875 -15.289062 19.523438 -14.234375 18.828125 -13.359375 C 18.140625 -12.492188 17.195312 -11.914062 16 -11.625 C 17.46875 -11.375 18.625 -10.753906 19.46875 -9.765625 C 20.3125 -8.773438 20.734375 -7.535156 20.734375 -6.046875 C 20.734375 -4.160156 20.015625 -2.679688 18.578125 -1.609375 C 17.148438 -0.535156 15.1875 0 12.6875 0 L 2.890625 0 Z M 6.609375 -18.75 L 6.609375 -12.921875 L 12.28125 -12.921875 C 13.457031 -12.921875 14.378906 -13.179688 15.046875 -13.703125 C 15.722656 -14.222656 16.0625 -14.945312 16.0625 -15.875 C 16.0625 -16.800781 15.726562 -17.507812 15.0625 -18 C 14.40625 -18.5 13.476562 -18.75 12.28125 -18.75 Z M 6.609375 -9.640625 L 6.609375 -3.3125 L 12.28125 -3.3125 C 13.75 -3.3125 14.890625 -3.585938 15.703125 -4.140625 C 16.515625 -4.703125 16.921875 -5.492188 16.921875 -6.515625 C 16.921875 -7.484375 16.507812 -8.242188 15.6875 -8.796875 C 14.863281 -9.359375 13.726562 -9.640625 12.28125 -9.640625 Z M 6.609375 -9.640625 "/></g></g></g><g fill="#2c2c1c" fill-opacity="1"><g transform="translate(98.828445, 215.917296)"><g><path d="M 18.640625 -18.71875 L 6.609375 -18.71875 L 6.609375 -12.75 L 17.390625 -12.75 L 17.390625 -9.421875 L 6.609375 -9.421875 L 6.609375 -3.34375 L 19.03125 -3.34375 L 19.03125 0 L 2.890625 0 L 2.890625 -22.046875 L 18.640625 -22.046875 Z M 18.640625 -18.71875 "/></g></g></g><g fill="#2c2c1c" fill-opacity="1"><g transform="translate(119.492468, 215.917296)"><g><path d="M 22.015625 0 L 18.359375 0 L 6.609375 -15.8125 L 6.609375 0 L 2.890625 0 L 2.890625 -22.046875 L 6.546875 -22.046875 L 18.359375 -6.203125 L 18.359375 -22.046875 L 22.015625 -22.046875 Z M 22.015625 0 "/></g></g></g><g fill="#2c2c1c" fill-opacity="1"><g transform="translate(144.440494, 215.917296)"><g/></g></g><g fill="#2c2c1c" fill-opacity="1"><g transform="translate(152.567504, 215.917296)"><g><path d="M 17.671875 -18.71875 L 6.609375 -18.71875 L 6.609375 -12.34375 L 16.625 -12.34375 L 16.625 -9.046875 L 6.609375 -9.046875 L 6.609375 0 L 2.890625 0 L 2.890625 -22.046875 L 17.703125 -22.046875 Z M 17.671875 -18.71875 "/></g></g></g><g fill="#2c2c1c" fill-opacity="1"><g transform="translate(170.680021, 215.917296)"><g><path d="M 17.140625 -4.984375 L 6.015625 -4.984375 L 3.90625 0 L 0.03125 0 L 9.765625 -22.046875 L 13.578125 -22.046875 L 23.21875 0 L 19.25 0 Z M 15.71875 -8.28125 L 11.5625 -18.078125 L 7.40625 -8.28125 Z M 15.71875 -8.28125 "/></g></g></g><g fill="#2c2c1c" fill-opacity="1"><g transform="translate(193.927056, 215.917296)"><g><path d="M 10.140625 -22.203125 C 12.992188 -22.203125 15.566406 -21.445312 17.859375 -19.9375 L 16.3125 -16.65625 C 14.070312 -18.03125 11.921875 -18.71875 9.859375 -18.71875 C 8.742188 -18.71875 7.863281 -18.515625 7.21875 -18.109375 C 6.582031 -17.710938 6.265625 -17.144531 6.265625 -16.40625 C 6.265625 -15.675781 6.554688 -15.050781 7.140625 -14.53125 C 7.734375 -14.019531 8.46875 -13.644531 9.34375 -13.40625 C 10.226562 -13.164062 11.1875 -12.859375 12.21875 -12.484375 C 13.25 -12.117188 14.203125 -11.726562 15.078125 -11.3125 C 15.960938 -10.90625 16.691406 -10.265625 17.265625 -9.390625 C 17.847656 -8.523438 18.140625 -7.472656 18.140625 -6.234375 C 18.140625 -4.304688 17.367188 -2.765625 15.828125 -1.609375 C 14.285156 -0.453125 12.285156 0.125 9.828125 0.125 C 8.148438 0.125 6.519531 -0.1875 4.9375 -0.8125 C 3.363281 -1.445312 1.988281 -2.300781 0.8125 -3.375 L 2.421875 -6.578125 C 3.535156 -5.554688 4.757812 -4.765625 6.09375 -4.203125 C 7.425781 -3.648438 8.691406 -3.375 9.890625 -3.375 C 11.191406 -3.375 12.203125 -3.609375 12.921875 -4.078125 C 13.648438 -4.546875 14.015625 -5.203125 14.015625 -6.046875 C 14.015625 -6.804688 13.71875 -7.441406 13.125 -7.953125 C 12.539062 -8.460938 11.804688 -8.835938 10.921875 -9.078125 C 10.046875 -9.328125 9.09375 -9.625 8.0625 -9.96875 C 7.03125 -10.3125 6.070312 -10.675781 5.1875 -11.0625 C 4.3125 -11.457031 3.578125 -12.082031 2.984375 -12.9375 C 2.398438 -13.800781 2.109375 -14.84375 2.109375 -16.0625 C 2.109375 -17.9375 2.84375 -19.425781 4.3125 -20.53125 C 5.78125 -21.644531 7.722656 -22.203125 10.140625 -22.203125 Z M 10.140625 -22.203125 "/></g></g></g><g fill="#2c2c1c" fill-opacity="1"><g transform="translate(213.520083, 215.917296)"><g><path d="M 22.015625 0 L 18.296875 0 L 18.296875 -9.140625 L 6.609375 -9.140625 L 6.609375 0 L 2.890625 0 L 2.890625 -22.046875 L 6.609375 -22.046875 L 6.609375 -12.46875 L 18.296875 -12.46875 L 18.296875 -22.046875 L 22.015625 -22.046875 Z M 22.015625 0 "/></g></g></g><g fill="#2c2c1c" fill-opacity="1"><g transform="translate(238.436616, 215.917296)"><g><path d="M 6.609375 0 L 2.890625 0 L 2.890625 -22.046875 L 6.609375 -22.046875 Z M 6.609375 0 "/></g></g></g><g fill="#2c2c1c" fill-opacity="1"><g transform="translate(247.949631, 215.917296)"><g><path d="M 4.4375 -18.9375 C 6.6875 -21.070312 9.457031 -22.140625 12.75 -22.140625 C 16.050781 -22.140625 18.820312 -21.070312 21.0625 -18.9375 C 23.3125 -16.8125 24.4375 -14.171875 24.4375 -11.015625 C 24.4375 -7.867188 23.3125 -5.21875 21.0625 -3.0625 C 18.820312 -0.914062 16.050781 0.15625 12.75 0.15625 C 9.457031 0.15625 6.6875 -0.914062 4.4375 -3.0625 C 2.195312 -5.21875 1.078125 -7.867188 1.078125 -11.015625 C 1.078125 -14.171875 2.195312 -16.8125 4.4375 -18.9375 Z M 12.78125 -18.8125 C 10.601562 -18.8125 8.734375 -18.054688 7.171875 -16.546875 C 5.617188 -15.046875 4.84375 -13.203125 4.84375 -11.015625 C 4.84375 -8.835938 5.625 -6.988281 7.1875 -5.46875 C 8.757812 -3.945312 10.625 -3.1875 12.78125 -3.1875 C 14.945312 -3.1875 16.796875 -3.945312 18.328125 -5.46875 C 19.859375 -6.988281 20.625 -8.835938 20.625 -11.015625 C 20.625 -13.203125 19.859375 -15.046875 18.328125 -16.546875 C 16.796875 -18.054688 14.945312 -18.8125 12.78125 -18.8125 Z M 12.78125 -18.8125 "/></g></g></g><g fill="#2c2c1c" fill-opacity="1"><g transform="translate(273.464679, 215.917296)"><g><path d="M 22.015625 0 L 18.359375 0 L 6.609375 -15.8125 L 6.609375 0 L 2.890625 0 L 2.890625 -22.046875 L 6.546875 -22.046875 L 18.359375 -6.203125 L 18.359375 -22.046875 L 22.015625 -22.046875 Z M 22.015625 0 "/></g></g></g><g fill="#2c2c1c" fill-opacity="1"><g transform="translate(149.414303, 236.617264)"><g><path d="M 12.4375 0 L 12.421875 -8.421875 L 8.25 -1.40625 L 7.484375 -1.40625 L 3.3125 -8.359375 L 3.3125 0 L 1.734375 0 L 1.734375 -11.546875 L 3.078125 -11.546875 L 7.90625 -3.4375 L 12.65625 -11.546875 L 14.015625 -11.546875 L 14.03125 0 Z M 12.4375 0 "/></g></g></g><g fill="#2c2c1c" fill-opacity="1"><g transform="translate(172.118513, 236.617264)"><g><path d="M 6.953125 0.125 C 5.785156 0.125 4.734375 -0.128906 3.796875 -0.640625 C 2.859375 -1.148438 2.125 -1.851562 1.59375 -2.75 C 1.0625 -3.65625 0.796875 -4.664062 0.796875 -5.78125 C 0.796875 -6.882812 1.0625 -7.882812 1.59375 -8.78125 C 2.125 -9.6875 2.859375 -10.394531 3.796875 -10.90625 C 4.734375 -11.425781 5.785156 -11.6875 6.953125 -11.6875 C 8.097656 -11.6875 9.140625 -11.425781 10.078125 -10.90625 C 11.015625 -10.394531 11.742188 -9.691406 12.265625 -8.796875 C 12.796875 -7.898438 13.0625 -6.894531 13.0625 -5.78125 C 13.0625 -4.65625 12.796875 -3.644531 12.265625 -2.75 C 11.742188 -1.851562 11.015625 -1.148438 10.078125 -0.640625 C 9.140625 -0.128906 8.097656 0.125 6.953125 0.125 Z M 6.953125 -1.34375 C 7.796875 -1.34375 8.554688 -1.53125 9.234375 -1.90625 C 9.910156 -2.289062 10.441406 -2.820312 10.828125 -3.5 C 11.222656 -4.175781 11.421875 -4.9375 11.421875 -5.78125 C 11.421875 -6.613281 11.222656 -7.367188 10.828125 -8.046875 C 10.441406 -8.722656 9.910156 -9.253906 9.234375 -9.640625 C 8.554688 -10.023438 7.796875 -10.21875 6.953125 -10.21875 C 6.097656 -10.21875 5.328125 -10.023438 4.640625 -9.640625 C 3.953125 -9.253906 3.410156 -8.722656 3.015625 -8.046875 C 2.628906 -7.367188 2.4375 -6.613281 2.4375 -5.78125 C 2.4375 -4.9375 2.628906 -4.175781 3.015625 -3.5 C 3.410156 -2.820312 3.953125 -2.289062 4.640625 -1.90625 C 5.328125 -1.53125 6.097656 -1.34375 6.953125 -1.34375 Z M 6.953125 -1.34375 "/></g></g></g><g fill="#2c2c1c" fill-opacity="1"><g transform="translate(192.925212, 236.617264)"><g><path d="M 1.734375 -11.546875 L 6.59375 -11.546875 C 7.820312 -11.546875 8.90625 -11.300781 9.84375 -10.8125 C 10.789062 -10.332031 11.523438 -9.65625 12.046875 -8.78125 C 12.578125 -7.90625 12.84375 -6.90625 12.84375 -5.78125 C 12.84375 -4.644531 12.578125 -3.640625 12.046875 -2.765625 C 11.523438 -1.890625 10.789062 -1.207031 9.84375 -0.71875 C 8.90625 -0.238281 7.820312 0 6.59375 0 L 1.734375 0 Z M 6.5 -1.4375 C 7.4375 -1.4375 8.257812 -1.617188 8.96875 -1.984375 C 9.675781 -2.347656 10.222656 -2.851562 10.609375 -3.5 C 10.992188 -4.15625 11.1875 -4.914062 11.1875 -5.78125 C 11.1875 -6.632812 10.992188 -7.390625 10.609375 -8.046875 C 10.222656 -8.703125 9.675781 -9.207031 8.96875 -9.5625 C 8.257812 -9.925781 7.4375 -10.109375 6.5 -10.109375 L 3.375 -10.109375 L 3.375 -1.4375 Z M 6.5 -1.4375 "/></g></g></g><g fill="#2c2c1c" fill-opacity="1"><g transform="translate(213.500916, 236.617264)"><g><path d="M 9.09375 -2.890625 L 2.953125 -2.890625 L 1.6875 0 L -0.015625 0 L 5.21875 -11.546875 L 6.84375 -11.546875 L 12.09375 0 L 10.359375 0 Z M 8.515625 -4.203125 L 6.015625 -9.859375 L 3.53125 -4.203125 Z M 8.515625 -4.203125 "/></g></g></g><path fill="#2c2c1c" d="M 122.566406 129.054688 L 252.523438 129.054688 L 252.523438 184.589844 L 122.566406 184.589844 L 122.566406 129.054688 " fill-opacity="1" fill-rule="nonzero"/><g fill="#ffffff" fill-opacity="1"><g transform="translate(138.930492, 170.696766)"><g><path d="M 22.09375 -13.921875 C 23.65625 -13.484375 24.882812 -12.695312 25.78125 -11.5625 C 26.675781 -10.425781 27.125 -8.988281 27.125 -7.25 C 27.125 -4.925781 26.242188 -3.132812 24.484375 -1.875 C 22.734375 -0.625 20.1875 0 16.84375 0 L 4.03125 0 L 4.03125 -26.859375 L 16.078125 -26.859375 C 19.140625 -26.859375 21.507812 -26.242188 23.1875 -25.015625 C 24.863281 -23.785156 25.703125 -22.082031 25.703125 -19.90625 C 25.703125 -18.5 25.375 -17.285156 24.71875 -16.265625 C 24.070312 -15.242188 23.195312 -14.460938 22.09375 -13.921875 Z M 7.859375 -23.75 L 7.859375 -15.15625 L 15.734375 -15.15625 C 17.703125 -15.15625 19.210938 -15.519531 20.265625 -16.25 C 21.328125 -16.976562 21.859375 -18.046875 21.859375 -19.453125 C 21.859375 -20.859375 21.328125 -21.925781 20.265625 -22.65625 C 19.210938 -23.382812 17.703125 -23.75 15.734375 -23.75 Z M 16.6875 -3.109375 C 18.863281 -3.109375 20.5 -3.460938 21.59375 -4.171875 C 22.695312 -4.890625 23.25 -6.019531 23.25 -7.5625 C 23.25 -10.550781 21.0625 -12.046875 16.6875 -12.046875 L 7.859375 -12.046875 L 7.859375 -3.109375 Z M 16.6875 -3.109375 "/></g></g></g><g fill="#ffffff" fill-opacity="1"><g transform="translate(184.106274, 170.696766)"><g><path d="M 4.03125 -28.46875 L 7.4375 -28.46875 L 7.4375 7.4375 L 4.03125 7.4375 Z M 4.03125 -28.46875 "/></g></g></g><g fill="#ffffff" fill-opacity="1"><g transform="translate(211.720605, 170.696766)"><g><path d="M 7.859375 -23.515625 L 7.859375 -14.15625 L 21.328125 -14.15625 L 21.328125 -10.859375 L 7.859375 -10.859375 L 7.859375 0 L 4.03125 0 L 4.03125 -26.859375 L 22.984375 -26.859375 L 22.984375 -23.515625 Z M 7.859375 -23.515625 "/></g></g></g></svg>