<svg width="25" height="25" viewBox="0 0 25 25" fill="none" xmlns="http://www.w3.org/2000/svg">
<path d="M22.9 6.33329C22.1344 6.67329 21.312 6.90209 20.4488 7.00529C21.3304 6.47729 22.0064 5.64129 22.3248 4.64449C21.5008 5.13329 20.5872 5.48849 19.6144 5.68049C18.836 4.85089 17.7272 4.33249 16.5 4.33249C14.1432 4.33249 12.2328 6.24369 12.2328 8.59969C12.2328 8.93409 12.2712 9.26049 12.3432 9.57169C8.79678 9.39409 5.65278 7.69489 3.54718 5.11249C3.18078 5.74289 2.97038 6.47569 2.97038 7.25889C2.97038 8.73889 3.72318 10.0453 4.86798 10.8101C4.16878 10.7877 3.51038 10.5957 2.93518 10.2765C2.93518 10.2949 2.93518 10.3117 2.93518 10.3301C2.93518 12.3981 4.40558 14.1229 6.35838 14.5141C6.00078 14.6117 5.62318 14.6637 5.23358 14.6637C4.95918 14.6637 4.69118 14.6365 4.43118 14.5877C4.97438 16.2829 6.55038 17.5173 8.41758 17.5517C6.95758 18.6965 5.11758 19.3789 3.11758 19.3789C2.77358 19.3789 2.43358 19.3589 2.09918 19.3189C3.98798 20.5293 6.23038 21.2357 8.64078 21.2357C16.4904 21.2357 20.7816 14.7333 20.7816 9.09409C20.7816 8.90929 20.7776 8.72529 20.7696 8.54209C21.604 7.93969 22.328 7.18849 22.9 6.33329Z" fill="#333333"/>
</svg>
